SerifasText-450.ufo
<glyph name="C" format="1">
  <advance width="708"/>
  <unicode hex="0043"/>
  <outline>
    <contour>
      <point x="659" y="94" type="line"/>
      <point x="598" y="21"/>
      <point x="512" y="-18"/>
      <point x="381" y="-18" type="curve" smooth="yes"/>
      <point x="159" y="-18"/>
      <point x="61" y="107"/>
      <point x="61" y="381" type="curve" smooth="yes"/>
      <point x="61" y="650"/>
      <point x="161" y="760"/>
      <point x="400" y="760" type="curve" smooth="yes"/>
      <point x="502" y="760"/>
      <point x="591" y="738"/>
      <point x="644" y="705" type="curve"/>
      <point x="618" y="460" type="line"/>
      <point x="565" y="460" type="line"/>
      <point x="528" y="691" type="line"/>
      <point x="599" y="613" type="line"/>
      <point x="543" y="647"/>
      <point x="473" y="669"/>
      <point x="391" y="669" type="curve" smooth="yes"/>
      <point x="257" y="669"/>
      <point x="169" y="590"/>
      <point x="167" y="430" type="curve" smooth="yes"/>
      <point x="164" y="171"/>
      <point x="223" y="75"/>
      <point x="381" y="75" type="curve" smooth="yes"/>
      <point x="488" y="74"/>
      <point x="549" y="109"/>
      <point x="595" y="166" type="curve"/>
    </contour>
  </outline>
</glyph>
<glyph name="D" format="1">
  <advance width="754"/>
  <unicode hex="0044"/>
  <outline>
    <contour>
      <point x="317" y="-1" type="line" smooth="yes"/>
      <point x="591" y="-2"/>
      <point x="698" y="104"/>
      <point x="698" y="370" type="curve" smooth="yes"/>
      <point x="698" y="638"/>
      <point x="595" y="740"/>
      <point x="327" y="740" type="curve" smooth="yes"/>
      <point x="53" y="740" type="line"/>
      <point x="53" y="655" type="line"/>
      <point x="190" y="655" type="line"/>
      <point x="127" y="691" type="line"/>
      <point x="127" y="69" type="line"/>
      <point x="161" y="95" type="line"/>
      <point x="53" y="68" type="line"/>
      <point x="53" y="0" type="line"/>
    </contour>
    <contour>
      <point x="267" y="656" type="line" smooth="yes"/>
      <point x="502" y="660"/>
      <point x="595" y="613"/>
      <point x="595" y="352" type="curve" smooth="yes"/>
      <point x="595" y="123"/>
      <point x="502" y="82"/>
      <point x="266" y="88" type="curve" smooth="yes"/>
      <point x="186" y="89" type="line"/>
      <point x="220" y="59" type="line"/>
      <point x="220" y="699" type="line"/>
      <point x="197" y="655" type="line"/>
    </contour>
  </outline>
</glyph>
<glyph name="E" format="1">
  <advance width="668"/>
  <unicode hex="0045"/>
  <outline>
    <contour>
      <point x="173" y="324" type="line"/>
      <point x="173" y="423" type="line"/>
      <point x="470" y="402" type="line"/>
      <point x="470" y="337" type="line"/>
    </contour>
    <contour>
      <point x="509" y="53" type="line"/>
      <point x="559" y="235" type="line"/>
      <point x="611" y="235" type="line"/>
      <point x="611" y="0" type="line"/>
      <point x="50" y="0" type="line"/>
      <point x="50" y="65" type="line"/>
      <point x="153" y="93" type="line"/>
      <point x="124" y="55" type="line"/>
      <point x="124" y="680" type="line"/>
      <point x="154" y="650" type="line"/>
      <point x="50" y="650" type="line"/>
      <point x="50" y="740" type="line"/>
      <point x="597" y="740" type="line"/>
      <point x="589" y="516" type="line"/>
      <point x="534" y="516" type="line"/>
      <point x="507" y="688" type="line"/>
      <point x="540" y="656" type="line"/>
      <point x="185" y="656" type="line"/>
      <point x="221" y="693" type="line"/>
      <point x="221" y="57" type="line"/>
      <point x="186" y="83" type="line"/>
      <point x="541" y="83" type="line"/>
    </contour>
  </outline>
</glyph>
<glyph name="F" format="1">
  <advance width="639"/>
  <unicode hex="0046"/>
  <outline>
    <contour>
      <point x="173" y="312" type="line"/>
      <point x="173" y="411" type="line"/>
      <point x="479" y="390" type="line"/>
      <point x="479" y="325" type="line"/>
    </contour>
    <contour>
      <point x="393" y="0" type="line"/>
      <point x="50" y="0" type="line"/>
      <point x="50" y="73" type="line"/>
      <point x="153" y="101" type="line"/>
      <point x="124" y="63" type="line"/>
      <point x="124" y="680" type="line"/>
      <point x="154" y="650" type="line"/>
      <point x="50" y="650" type="line"/>
      <point x="50" y="740" type="line"/>
      <point x="606" y="740" type="line"/>
      <point x="598" y="506" type="line"/>
      <point x="540" y="506" type="line"/>
      <point x="509" y="688" type="line"/>
      <point x="546" y="656" type="line"/>
      <point x="185" y="656" type="line"/>
      <point x="221" y="693" type="line"/>
      <point x="221" y="53" type="line"/>
      <point x="190" y="101" type="line"/>
      <point x="393" y="73" type="line"/>
    </contour>
  </outline>
</glyph>
<glyph name="G" format="1">
  <advance width="758"/>
  <unicode hex="0047"/>
  <outline>
    <contour>
      <point x="580" y="83" type="line"/>
      <point x="580" y="315" type="line"/>
      <point x="609" y="274" type="line"/>
      <point x="412" y="282" type="line"/>
      <point x="412" y="353" type="line"/>
      <point x="677" y="363" type="line"/>
      <point x="677" y="148" type="line"/>
      <point x="638" y="48"/>
      <point x="544" y="-18"/>
      <point x="384" y="-18" type="curve" smooth="yes"/>
      <point x="161" y="-18"/>
      <point x="63" y="107"/>
      <point x="63" y="381" type="curve" smooth="yes"/>
      <point x="63" y="651"/>
      <point x="163" y="760"/>
      <point x="403" y="760" type="curve"/>
      <point x="505" y="760"/>
      <point x="592" y="738"/>
      <point x="645" y="705" type="curve"/>
      <point x="619" y="505" type="line"/>
      <point x="567" y="505" type="line"/>
      <point x="520" y="688" type="line"/>
      <point x="583" y="612" type="line"/>
      <point x="528" y="651"/>
      <point x="473" y="668"/>
      <point x="392" y="668" type="curve" smooth="yes"/>
      <point x="249" y="668"/>
      <point x="172" y="584"/>
      <point x="170" y="427" type="curve" smooth="yes"/>
      <point x="166" y="152"/>
      <point x="244" y="70"/>
      <point x="384" y="70" type="curve" smooth="yes"/>
      <point x="476" y="70"/>
      <point x="550" y="109"/>
      <point x="590" y="174" type="curve"/>
    </contour>
  </outline>
</glyph>
<glyph name="H" format="1">
  <advance width="823"/>
  <unicode hex="0048"/>
  <outline>
    <contour>
      <point x="187" y="335" type="line"/>
      <point x="187" y="416" type="line"/>
      <point x="632" y="416" type="line"/>
      <point x="632" y="335" type="line"/>
    </contour>
    <contour>
      <point x="221" y="694" type="line"/>
      <point x="221" y="61" type="line"/>
      <point x="173" y="90" type="line"/>
      <point x="299" y="90" type="line"/>
      <point x="299" y="0" type="line"/>
      <point x="50" y="0" type="line"/>
      <point x="50" y="68" type="line"/>
      <point x="158" y="97" type="line"/>
      <point x="124" y="69" type="line"/>
      <point x="124" y="686" type="line"/>
      <point x="187" y="650" type="line"/>
      <point x="50" y="650" type="line"/>
      <point x="50" y="740" type="line"/>
      <point x="299" y="740" type="line"/>
      <point x="299" y="672" type="line"/>
      <point x="196" y="643" type="line"/>
    </contour>
    <contour>
      <point x="699" y="689" type="line"/>
      <point x="699" y="57" type="line"/>
      <point x="636" y="90" type="line"/>
      <point x="773" y="90" type="line"/>
      <point x="773" y="0" type="line"/>
      <point x="524" y="0" type="line"/>
      <point x="524" y="68" type="line"/>
      <point x="627" y="97" type="line"/>
      <point x="602" y="69" type="line"/>
      <point x="602" y="682" type="line"/>
      <point x="650" y="650" type="line"/>
      <point x="524" y="650" type="line"/>
      <point x="524" y="740" type="line"/>
      <point x="773" y="740" type="line"/>
      <point x="773" y="672" type="line"/>
      <point x="665" y="643" type="line"/>
    </contour>
  </outline>
</glyph>
<glyph name="I" format="1">
  <advance width="424"/>
  <unicode hex="0049"/>
  <outline>
    <contour>
      <point x="260" y="39" type="line"/>
      <point x="218" y="90" type="line"/>
      <point x="366" y="90" type="line"/>
      <point x="366" y="0" type="line"/>
      <point x="59" y="0" type="line"/>
      <point x="59" y="68" type="line"/>
      <point x="188" y="97" type="line"/>
      <point x="166" y="51" type="line"/>
      <point x="166" y="682" type="line"/>
      <point x="201" y="650" type="line"/>
      <point x="59" y="650" type="line"/>
      <point x="59" y="740" type="line"/>
      <point x="366" y="740" type="line"/>
      <point x="366" y="672" type="line"/>
      <point x="236" y="643" type="line"/>
      <point x="260" y="689" type="line"/>
    </contour>
  </outline>
</glyph>
<glyph name="L" format="1">
  <advance width="658"/>
  <unicode hex="004C"/>
  <outline>
    <contour>
      <point x="186" y="86" type="line"/>
      <point x="564" y="86" type="line"/>
      <point x="499" y="49" type="line"/>
      <point x="553" y="298" type="line"/>
      <point x="608" y="298" type="line"/>
      <point x="608" y="3" type="line"/>
      <point x="53" y="0" type="line"/>
      <point x="53" y="62" type="line"/>
      <point x="161" y="91" type="line"/>
      <point x="127" y="63" type="line"/>
      <point x="127" y="686" type="line"/>
      <point x="190" y="650" type="line"/>
      <point x="53" y="650" type="line"/>
      <point x="53" y="740" type="line"/>
      <point x="412" y="740" type="line"/>
      <point x="414" y="669" type="line"/>
      <point x="200" y="644" type="line"/>
      <point x="224" y="694" type="line"/>
      <point x="224" y="55" type="line"/>
    </contour>
  </outline>
</glyph>
<glyph name="N" format="1">
  <advance width="823"/>
  <unicode hex="004E"/>
  <outline>
    <contour>
      <point x="591" y="-2" type="line"/>
      <point x="197" y="661" type="line"/>
      <point x="214" y="679" type="line"/>
      <point x="214" y="61" type="line"/>
      <point x="179" y="90" type="line"/>
      <point x="319" y="90" type="line"/>
      <point x="319" y="0" type="line"/>
      <point x="50" y="0" type="line"/>
      <point x="50" y="68" type="line"/>
      <point x="158" y="97" type="line"/>
      <point x="124" y="69" type="line"/>
      <point x="124" y="686" type="line"/>
      <point x="182" y="650" type="line"/>
      <point x="50" y="650" type="line"/>
      <point x="50" y="740" type="line"/>
      <point x="268" y="740" type="line"/>
      <point x="633" y="128" type="line"/>
      <point x="618" y="125" type="line"/>
      <point x="617" y="682" type="line"/>
      <point x="655" y="650" type="line"/>
      <point x="534" y="650" type="line"/>
      <point x="534" y="740" type="line"/>
      <point x="803" y="740" type="line"/>
      <point x="803" y="672" type="line"/>
      <point x="666" y="643" type="line"/>
      <point x="700" y="689" type="line"/>
      <point x="700" y="0" type="line"/>
    </contour>
  </outline>
</glyph>
<glyph name="P" format="1">
  <advance width="684"/>
  <unicode hex="0050"/>
  <outline>
    <contour>
      <point x="353" y="656" type="curve"/>
      <point x="200" y="655" type="line"/>
      <point x="220" y="694" type="line"/>
      <point x="220" y="61" type="line"/>
      <point x="177" y="90" type="line"/>
      <point x="367" y="90" type="line"/>
      <point x="367" y="0" type="line"/>
      <point x="50" y="0" type="line"/>
      <point x="50" y="68" type="line"/>
      <point x="158" y="97" type="line"/>
      <point x="124" y="69" type="line"/>
      <point x="124" y="686" type="line"/>
      <point x="187" y="650" type="line"/>
      <point x="50" y="650" type="line"/>
      <point x="50" y="740" type="line"/>
      <point x="335" y="740" type="line"/>
      <point x="551" y="740"/>
      <point x="636" y="679"/>
      <point x="636" y="499" type="curve" smooth="yes"/>
      <point x="636" y="309"/>
      <point x="561" y="242"/>
      <point x="312" y="242" type="curve" smooth="yes"/>
      <point x="196" y="242" type="line"/>
      <point x="196" y="328" type="line"/>
      <point x="325" y="328" type="line" smooth="yes"/>
      <point x="498" y="328"/>
      <point x="535" y="379"/>
      <point x="535" y="499" type="curve" smooth="yes"/>
      <point x="535" y="618"/>
      <point x="478" y="656"/>
    </contour>
  </outline>
</glyph>
<glyph name="T" format="1">
  <advance width="756"/>
  <unicode hex="0054"/>
  <outline>
    <contour>
      <point x="657" y="651" type="line"/>
      <point x="620" y="681" type="line"/>
      <point x="636" y="445" type="line"/>
      <point x="707" y="445" type="line"/>
      <point x="720" y="740" type="line"/>
      <point x="37" y="740" type="line"/>
      <point x="50" y="445" type="line"/>
      <point x="121" y="445" type="line"/>
      <point x="137" y="681" type="line"/>
      <point x="100" y="651" type="line"/>
    </contour>
    <contour>
      <point x="326" y="686" type="line"/>
      <point x="326" y="56" type="line"/>
      <point x="356" y="100" type="line"/>
      <point x="187" y="65" type="line"/>
      <point x="187" y="1" type="line"/>
      <point x="569" y="1" type="line"/>
      <point x="569" y="65" type="line"/>
      <point x="396" y="100" type="line"/>
      <point x="425" y="56" type="line"/>
      <point x="425" y="686" type="line"/>
    </contour>
  </outline>
</glyph>
<glyph name="U" format="1">
  <advance width="816"/>
  <unicode hex="0055"/>
  <outline>
    <contour>
      <point x="616" y="83" type="line"/>
      <point x="631" y="148" type="line"/>
      <point x="604" y="162" type="line"/>
      <point x="552" y="106"/>
      <point x="465" y="85"/>
      <point x="378" y="85" type="curve"/>
      <point x="245" y="85"/>
      <point x="196" y="125"/>
      <point x="196" y="233" type="curve"/>
      <point x="196" y="679" type="line"/>
      <point x="167" y="641" type="line"/>
      <point x="279" y="672" type="line"/>
      <point x="279" y="740" type="line"/>
      <point x="24" y="740" type="line"/>
      <point x="24" y="650" type="line"/>
      <point x="128" y="650" type="line"/>
      <point x="98" y="680" type="line"/>
      <point x="98" y="229" type="line"/>
      <point x="98" y="86"/>
      <point x="175" y="-18"/>
      <point x="326" y="-18" type="curve" smooth="yes"/>
      <point x="479" y="-18"/>
      <point x="527" y="11"/>
      <point x="550" y="83" type="curve"/>
    </contour>
    <contour>
      <point x="745" y="90" type="line"/>
      <point x="638" y="90" type="line"/>
      <point x="668" y="60" type="line"/>
      <point x="667" y="682" type="line"/>
      <point x="642" y="644" type="line"/>
      <point x="745" y="672" type="line"/>
      <point x="745" y="740" type="line"/>
      <point x="486" y="740" type="line"/>
      <point x="486" y="650" type="line"/>
      <point x="599" y="650" type="line"/>
      <point x="569" y="680" type="line"/>
      <point x="569" y="0" type="line"/>
      <point x="745" y="0" type="line"/>
    </contour>
  </outline>
</glyph>
<glyph name="a" format="1">
  <advance width="579"/>
  <unicode hex="0061"/>
  <outline>
    <contour>
      <point x="123" y="163" type="curve" smooth="yes"/>
      <point x="123" y="238"/>
      <point x="164" y="260"/>
      <point x="252" y="260" type="curve" smooth="yes"/>
      <point x="337" y="260"/>
      <point x="395" y="196"/>
      <point x="395" y="196" type="curve"/>
      <point x="417" y="230" type="line"/>
      <point x="358" y="314"/>
      <point x="300" y="329"/>
      <point x="230" y="329" type="curve" smooth="yes"/>
      <point x="99" y="329"/>
      <point x="36" y="277"/>
      <point x="36" y="154" type="curve" smooth="yes"/>
      <point x="36" y="39"/>
      <point x="97" y="-18"/>
      <point x="207" y="-18" type="curve" smooth="yes"/>
      <point x="307" y="-18"/>
      <point x="357" y="19"/>
      <point x="357" y="100" type="curve"/>
      <point x="334" y="65" type="line"/>
      <point x="427" y="65" type="line"/>
      <point x="412" y="162" type="line"/>
      <point x="387" y="123"/>
      <point x="311" y="59"/>
      <point x="238" y="59" type="curve" smooth="yes"/>
      <point x="165" y="59"/>
      <point x="123" y="93"/>
    </contour>
    <contour>
      <point x="528" y="68" type="line"/>
      <point x="429" y="119" type="line"/>
      <point x="468" y="68" type="line"/>
      <point x="468" y="333" type="line" smooth="yes"/>
      <point x="468" y="488"/>
      <point x="421" y="559"/>
      <point x="283" y="558" type="curve" smooth="yes"/>
      <point x="240" y="558"/>
      <point x="169" y="551"/>
      <point x="63" y="516" type="curve"/>
      <point x="87" y="442" type="line"/>
      <point x="135" y="458"/>
      <point x="198" y="477"/>
      <point x="255" y="477" type="curve" smooth="yes"/>
      <point x="354" y="477"/>
      <point x="381" y="421"/>
      <point x="381" y="305" type="curve" smooth="yes"/>
      <point x="380" y="0" type="line"/>
      <point x="528" y="0" type="line"/>
    </contour>
  </outline>
</glyph>
<glyph name="b" format="1">
  <advance width="620"/>
  <unicode hex="0062"/>
  <outline>
    <contour>
      <point x="104" y="0" type="line"/>
      <point x="104" y="670" type="line"/>
      <point x="162" y="655" type="line"/>
      <point x="27" y="655" type="line"/>
      <point x="27" y="760" type="line"/>
      <point x="195" y="760" type="line"/>
      <point x="195" y="94" type="line"/>
      <point x="182" y="87" type="line"/>
      <point x="160" y="0" type="line"/>
    </contour>
    <contour>
      <point x="483" y="276" type="curve"/>
      <point x="483" y="398"/>
      <point x="441" y="454"/>
      <point x="361" y="454" type="curve" smooth="yes"/>
      <point x="274" y="454"/>
      <point x="235" y="426"/>
      <point x="164" y="387" type="curve"/>
      <point x="164" y="456" type="line"/>
      <point x="297" y="471" type="line"/>
      <point x="223" y="429" type="line"/>
      <point x="223" y="507"/>
      <point x="281" y="554"/>
      <point x="387" y="554" type="curve" smooth="yes"/>
      <point x="491" y="554"/>
      <point x="577" y="513"/>
      <point x="577" y="265" type="curve" smooth="yes"/>
      <point x="577" y="44"/>
      <point x="481" y="-11"/>
      <point x="354" y="-11" type="curve" smooth="yes"/>
      <point x="243" y="-11"/>
      <point x="156" y="70"/>
      <point x="145" y="142" type="curve"/>
      <point x="171" y="169" type="line"/>
      <point x="204" y="107"/>
      <point x="248" y="66"/>
      <point x="340" y="66" type="curve" smooth="yes"/>
      <point x="422" y="66"/>
      <point x="483" y="118"/>
    </contour>
  </outline>
</glyph>
<glyph name="c" format="1">
  <advance width="556"/>
  <unicode hex="0063"/>
  <outline>
    <contour>
      <point x="512" y="62" type="curve"/>
      <point x="472" y="128" type="line"/>
      <point x="434" y="99"/>
      <point x="379" y="62"/>
      <point x="293" y="62" type="curve" smooth="yes"/>
      <point x="187" y="62"/>
      <point x="147" y="150"/>
      <point x="147" y="284" type="curve" smooth="yes"/>
      <point x="147" y="425"/>
      <point x="197" y="479"/>
      <point x="296" y="479" type="curve" smooth="yes"/>
      <point x="367" y="479"/>
      <point x="392" y="461"/>
      <point x="406" y="443" type="curve" smooth="yes"/>
      <point x="421" y="425"/>
      <point x="426" y="374"/>
      <point x="423" y="329" type="curve"/>
      <point x="498" y="329" type="line"/>
      <point x="510" y="524"/>
      <point x="449" y="555"/>
      <point x="288" y="555" type="curve" smooth="yes"/>
      <point x="135" y="555"/>
      <point x="46" y="472"/>
      <point x="46" y="270" type="curve" smooth="yes"/>
      <point x="46" y="66"/>
      <point x="130" y="-11"/>
      <point x="285" y="-11" type="curve" smooth="yes"/>
      <point x="373" y="-11"/>
      <point x="439" y="7"/>
    </contour>
  </outline>
</glyph>
<glyph name="d" format="1">
  <advance width="647"/>
  <unicode hex="0064"/>
  <outline>
    <contour>
      <point x="304" y="760" type="line"/>
      <point x="511" y="760" type="line"/>
      <point x="511" y="68" type="line"/>
      <point x="456" y="98" type="line"/>
      <point x="568" y="68" type="line"/>
      <point x="568" y="0" type="line"/>
      <point x="421" y="0" type="line"/>
      <point x="421" y="691" type="line"/>
      <point x="449" y="652" type="line"/>
      <point x="304" y="691" type="line"/>
    </contour>
    <contour>
      <point x="244" y="-11" type="curve" smooth="yes"/>
      <point x="141" y="-11"/>
      <point x="47" y="28"/>
      <point x="47" y="284" type="curve"/>
      <point x="47" y="507"/>
      <point x="147" y="555"/>
      <point x="270" y="555" type="curve" smooth="yes"/>
      <point x="381" y="555"/>
      <point x="463" y="469"/>
      <point x="474" y="397" type="curve"/>
      <point x="436" y="383" type="line"/>
      <point x="422" y="436"/>
      <point x="362" y="474"/>
      <point x="279" y="474" type="curve" smooth="yes"/>
      <point x="199" y="474"/>
      <point x="141" y="420"/>
      <point x="141" y="311" type="curve" smooth="yes"/>
      <point x="141" y="137"/>
      <point x="174" y="83"/>
      <point x="275" y="83" type="curve" smooth="yes"/>
      <point x="369" y="83"/>
      <point x="445" y="148"/>
      <point x="474" y="194" type="curve"/>
      <point x="456" y="63" type="line"/>
      <point x="349" y="63" type="line"/>
      <point x="419" y="121" type="line"/>
      <point x="419" y="31"/>
      <point x="350" y="-11"/>
    </contour>
  </outline>
</glyph>
<glyph name="e" format="1">
  <advance width="556"/>
  <unicode hex="0065"/>
  <outline>
    <contour>
      <point x="418" y="305" type="curve"/>
      <point x="453" y="309" type="line"/>
      <point x="258" y="309" type="line" smooth="yes"/>
      <point x="185" y="309"/>
      <point x="167" y="310"/>
      <point x="167" y="269" type="curve"/>
      <point x="105" y="269" type="line"/>
      <point x="105" y="238" type="line"/>
      <point x="503" y="238" type="line"/>
      <point x="509" y="381"/>
      <point x="498" y="462"/>
      <point x="451" y="508" type="curve" smooth="yes"/>
      <point x="414" y="543"/>
      <point x="366" y="554"/>
      <point x="282" y="554" type="curve" smooth="yes"/>
      <point x="129" y="554"/>
      <point x="47" y="470"/>
      <point x="47" y="270" type="curve" smooth="yes"/>
      <point x="47" y="69"/>
      <point x="124" y="-11"/>
      <point x="284" y="-11" type="curve" smooth="yes"/>
      <point x="370" y="-11"/>
      <point x="432" y="7"/>
      <point x="503" y="61" type="curve"/>
      <point x="465" y="133" type="line"/>
      <point x="429" y="105"/>
      <point x="377" y="73"/>
      <point x="291" y="73" type="curve" smooth="yes"/>
      <point x="193" y="73"/>
      <point x="144" y="143"/>
      <point x="144" y="271" type="curve" smooth="yes"/>
      <point x="144" y="436"/>
      <point x="198" y="475"/>
      <point x="296" y="475" type="curve" smooth="yes"/>
      <point x="399" y="475"/>
      <point x="424" y="415"/>
    </contour>
  </outline>
</glyph>
<glyph name="h" format="1">
  <advance width="649"/>
  <unicode hex="0068"/>
  <outline>
    <contour>
      <point x="600" y="68" type="line"/>
      <point x="493" y="120" type="line"/>
      <point x="546" y="65" type="line"/>
      <point x="546" y="369" type="line" smooth="yes"/>
      <point x="546" y="509"/>
      <point x="493" y="555"/>
      <point x="382" y="555" type="curve" smooth="yes"/>
      <point x="285" y="555"/>
      <point x="229" y="519"/>
      <point x="223" y="431" type="curve"/>
      <point x="268" y="465" type="line"/>
      <point x="183" y="465" type="line"/>
      <point x="183" y="372" type="line"/>
      <point x="210" y="425"/>
      <point x="290" y="445"/>
      <point x="346" y="445" type="curve" smooth="yes"/>
      <point x="424" y="445"/>
      <point x="459" y="420"/>
      <point x="459" y="383" type="curve" smooth="yes"/>
      <point x="459" y="65" type="line"/>
      <point x="487" y="107" type="line"/>
      <point x="402" y="68" type="line"/>
      <point x="402" y="-1" type="line"/>
      <point x="600" y="-1" type="line"/>
    </contour>
    <contour>
      <point x="258" y="-1" type="line"/>
      <point x="258" y="68" type="line"/>
      <point x="173" y="110" type="line"/>
      <point x="201" y="68" type="line"/>
      <point x="201" y="759" type="line"/>
      <point x="54" y="760" type="line"/>
      <point x="54" y="660" type="line"/>
      <point x="166" y="660" type="line"/>
      <point x="114" y="689" type="line"/>
      <point x="114" y="75" type="line"/>
      <point x="129" y="101" type="line"/>
      <point x="54" y="68" type="line"/>
      <point x="54" y="-1" type="line"/>
    </contour>
  </outline>
</glyph>
<glyph name="i" format="1">
  <advance width="341"/>
  <unicode hex="0069"/>
  <outline>
    <contour>
      <point x="309" y="-1" type="line"/>
      <point x="309" y="68" type="line"/>
      <point x="206" y="103" type="line"/>
      <point x="234" y="68" type="line"/>
      <point x="234" y="539" type="line"/>
      <point x="72" y="539" type="line"/>
      <point x="72" y="439" type="line"/>
      <point x="199" y="439" type="line"/>
      <point x="147" y="468" type="line"/>
      <point x="147" y="75" type="line"/>
      <point x="162" y="94" type="line"/>
      <point x="70" y="68" type="line"/>
      <point x="70" y="-1" type="line"/>
    </contour>
    <contour>
      <point x="166" y="651" type="curve"/>
      <point x="211" y="650"/>
      <point x="240" y="675"/>
      <point x="240" y="728" type="curve" smooth="yes"/>
      <point x="240" y="784"/>
      <point x="211" y="806"/>
      <point x="166" y="806" type="curve"/>
      <point x="119" y="807"/>
      <point x="97" y="782"/>
      <point x="97" y="729" type="curve" smooth="yes"/>
      <point x="97" y="673"/>
      <point x="119" y="651"/>
    </contour>
  </outline>
</glyph>
<glyph name="l" format="1">
  <advance width="331"/>
  <unicode hex="006C"/>
  <outline>
    <contour>
      <point x="304" y="-1" type="line"/>
      <point x="304" y="68" type="line"/>
      <point x="201" y="103" type="line"/>
      <point x="229" y="68" type="line"/>
      <point x="229" y="760" type="line"/>
      <point x="67" y="760" type="line"/>
      <point x="67" y="655" type="line"/>
      <point x="194" y="655" type="line"/>
      <point x="142" y="689" type="line"/>
      <point x="142" y="75" type="line"/>
      <point x="157" y="94" type="line"/>
      <point x="65" y="68" type="line"/>
      <point x="65" y="-1" type="line"/>
    </contour>
  </outline>
</glyph>
<glyph name="m" format="1">
  <advance width="948"/>
  <unicode hex="006D"/>
  <outline>
    <contour>
      <point x="597" y="68" type="line"/>
      <point x="492" y="120" type="line"/>
      <point x="543" y="65" type="line"/>
      <point x="543" y="359" type="line"/>
      <point x="543" y="517"/>
      <point x="498" y="555"/>
      <point x="397" y="555" type="curve" smooth="yes"/>
      <point x="302" y="555"/>
      <point x="251" y="521"/>
      <point x="245" y="434" type="curve"/>
      <point x="261" y="470" type="line"/>
      <point x="193" y="470" type="line"/>
      <point x="193" y="375" type="line"/>
      <point x="220" y="428"/>
      <point x="292" y="446"/>
      <point x="348" y="446" type="curve" smooth="yes"/>
      <point x="426" y="446"/>
      <point x="456" y="421"/>
      <point x="456" y="379" type="curve" smooth="yes"/>
      <point x="456" y="65" type="line"/>
      <point x="484" y="107" type="line"/>
      <point x="399" y="68" type="line"/>
      <point x="399" y="-1" type="line"/>
      <point x="597" y="-1" type="line"/>
    </contour>
    <contour>
      <point x="281" y="-1" type="line"/>
      <point x="281" y="68" type="line"/>
      <point x="196" y="110" type="line"/>
      <point x="224" y="68" type="line"/>
      <point x="224" y="539" type="line"/>
      <point x="77" y="539" type="line"/>
      <point x="77" y="439" type="line"/>
      <point x="189" y="439" type="line"/>
      <point x="137" y="468" type="line"/>
      <point x="137" y="75" type="line"/>
      <point x="152" y="101" type="line"/>
      <point x="77" y="68" type="line"/>
      <point x="77" y="-1" type="line"/>
    </contour>
    <contour>
      <point x="917" y="68" type="line"/>
      <point x="814" y="119" type="line"/>
      <point x="863" y="65" type="line"/>
      <point x="863" y="359" type="line"/>
      <point x="863" y="507"/>
      <point x="814" y="555"/>
      <point x="710" y="555" type="curve" smooth="yes"/>
      <point x="614" y="555"/>
      <point x="565" y="521"/>
      <point x="559" y="434" type="curve"/>
      <point x="580" y="470" type="line"/>
      <point x="506" y="470" type="line"/>
      <point x="504" y="365" type="line"/>
      <point x="531" y="418"/>
      <point x="609" y="446"/>
      <point x="665" y="446" type="curve" smooth="yes"/>
      <point x="743" y="446"/>
      <point x="776" y="421"/>
      <point x="776" y="379" type="curve" smooth="yes"/>
      <point x="776" y="65" type="line"/>
      <point x="804" y="107" type="line"/>
      <point x="719" y="68" type="line"/>
      <point x="719" y="-1" type="line"/>
      <point x="917" y="-1" type="line"/>
    </contour>
  </outline>
</glyph>
<glyph name="n" format="1">
  <advance width="649"/>
  <unicode hex="006E"/>
  <outline>
    <contour>
      <point x="619" y="68" type="line"/>
      <point x="507" y="123" type="line"/>
      <point x="565" y="65" type="line"/>
      <point x="565" y="369" type="line"/>
      <point x="565" y="509"/>
      <point x="512" y="555"/>
      <point x="401" y="555" type="curve" smooth="yes"/>
      <point x="304" y="555"/>
      <point x="249" y="517"/>
      <point x="243" y="429" type="curve"/>
      <point x="278" y="465" type="line"/>
      <point x="204" y="465" type="line"/>
      <point x="204" y="372" type="line"/>
      <point x="231" y="425"/>
      <point x="304" y="446"/>
      <point x="360" y="446" type="curve" smooth="yes"/>
      <point x="438" y="446"/>
      <point x="473" y="423"/>
      <point x="473" y="383" type="curve" smooth="yes"/>
      <point x="473" y="65" type="line"/>
      <point x="501" y="107" type="line"/>
      <point x="416" y="68" type="line"/>
      <point x="416" y="-1" type="line"/>
      <point x="619" y="-1" type="line"/>
    </contour>
    <contour>
      <point x="278" y="-1" type="line"/>
      <point x="278" y="68" type="line"/>
      <point x="193" y="110" type="line"/>
      <point x="221" y="68" type="line"/>
      <point x="221" y="539" type="line"/>
      <point x="69" y="539" type="line"/>
      <point x="69" y="439" type="line"/>
      <point x="181" y="439" type="line"/>
      <point x="129" y="468" type="line"/>
      <point x="129" y="75" type="line"/>
      <point x="144" y="101" type="line"/>
      <point x="69" y="68" type="line"/>
      <point x="69" y="-1" type="line"/>
    </contour>
  </outline>
</glyph>
<glyph name="o" format="1">
  <advance width="596"/>
  <unicode hex="006F"/>
  <outline>
    <contour>
      <point x="298" y="-18" type="curve"/>
      <point x="469" y="-18"/>
      <point x="547" y="60"/>
      <point x="547" y="268" type="curve" smooth="yes"/>
      <point x="547" y="485"/>
      <point x="466" y="558"/>
      <point x="298" y="558" type="curve" smooth="yes"/>
      <point x="128" y="558"/>
      <point x="49" y="481"/>
      <point x="49" y="273" type="curve" smooth="yes"/>
      <point x="49" y="56"/>
      <point x="130" y="-18"/>
    </contour>
    <contour>
      <point x="153" y="310" type="curve" smooth="yes"/>
      <point x="153" y="419"/>
      <point x="189" y="473"/>
      <point x="307" y="473" type="curve" smooth="yes"/>
      <point x="425" y="473"/>
      <point x="443" y="416"/>
      <point x="443" y="230" type="curve" smooth="yes"/>
      <point x="443" y="128"/>
      <point x="419" y="67"/>
      <point x="289" y="67" type="curve" smooth="yes"/>
      <point x="172" y="67"/>
      <point x="153" y="124"/>
    </contour>
  </outline>
</glyph>
<glyph name="p" format="1">
  <advance width="647"/>
  <unicode hex="0070"/>
  <outline>
    <contour>
      <point x="374" y="-12" type="curve" smooth="yes"/>
      <point x="268" y="-12"/>
      <point x="198" y="61"/>
      <point x="192" y="134" type="curve"/>
      <point x="193" y="174" type="line"/>
      <point x="226" y="111"/>
      <point x="278" y="70"/>
      <point x="359" y="70" type="curve" smooth="yes"/>
      <point x="446" y="70"/>
      <point x="505" y="124"/>
      <point x="505" y="280" type="curve" smooth="yes"/>
      <point x="505" y="405"/>
      <point x="462" y="454"/>
      <point x="378" y="454" type="curve" smooth="yes"/>
      <point x="314" y="454"/>
      <point x="256" y="432"/>
      <point x="186" y="387" type="curve"/>
      <point x="210" y="474" type="line"/>
      <point x="281" y="473" type="line"/>
      <point x="246" y="448" type="line"/>
      <point x="246" y="522"/>
      <point x="325" y="555"/>
      <point x="412" y="555" type="curve" smooth="yes"/>
      <point x="530" y="555"/>
      <point x="598" y="479"/>
      <point x="598" y="278" type="curve" smooth="yes"/>
      <point x="598" y="16"/>
      <point x="486" y="-12"/>
    </contour>
    <contour>
      <point x="58" y="-210" type="line"/>
      <point x="58" y="-139" type="line"/>
      <point x="163" y="-119" type="line"/>
      <point x="133" y="-149" type="line"/>
      <point x="133" y="439" type="line"/>
      <point x="73" y="439" type="line"/>
      <point x="73" y="540" type="line"/>
      <point x="224" y="540" type="line"/>
      <point x="224" y="-144" type="line"/>
      <point x="191" y="-107" type="line"/>
      <point x="368" y="-150" type="line"/>
      <point x="368" y="-210" type="line"/>
    </contour>
  </outline>
</glyph>
<glyph name="q" format="1">
  <advance width="620"/>
  <unicode hex="0071"/>
  <outline>
    <contour>
      <point x="242" y="-11" type="curve" smooth="yes"/>
      <point x="139" y="-11"/>
      <point x="44" y="36"/>
      <point x="44" y="284" type="curve"/>
      <point x="44" y="508"/>
      <point x="139" y="554"/>
      <point x="265" y="554" type="curve" smooth="yes"/>
      <point x="376" y="554"/>
      <point x="460" y="465"/>
      <point x="471" y="393" type="curve"/>
      <point x="446" y="378" type="line"/>
      <point x="432" y="429"/>
      <point x="335" y="470"/>
      <point x="275" y="470" type="curve" smooth="yes"/>
      <point x="188" y="470"/>
      <point x="137" y="423"/>
      <point x="137" y="311" type="curve" smooth="yes"/>
      <point x="137" y="136"/>
      <point x="177" y="77"/>
      <point x="277" y="77" type="curve" smooth="yes"/>
      <point x="366" y="77"/>
      <point x="440" y="141"/>
      <point x="473" y="206" type="curve"/>
      <point x="462" y="59" type="line"/>
      <point x="315" y="59" type="line"/>
      <point x="402" y="101" type="line"/>
      <point x="402" y="31"/>
      <point x="348" y="-11"/>
    </contour>
    <contour>
      <point x="278" y="-210" type="line"/>
      <point x="278" y="-150" type="line"/>
      <point x="449" y="-108" type="line"/>
      <point x="421" y="-142" type="line"/>
      <point x="421" y="464" type="line"/>
      <point x="433" y="471" type="line"/>
      <point x="455" y="558" type="line"/>
      <point x="513" y="558" type="line"/>
      <point x="513" y="-144" type="line"/>
      <point x="483" y="-119" type="line"/>
      <point x="588" y="-139" type="line"/>
      <point x="588" y="-210" type="line"/>
    </contour>
  </outline>
</glyph>
<glyph name="r" format="1">
  <advance width="510"/>
  <unicode hex="0072"/>
  <outline>
    <contour>
      <point x="379" y="-1" type="line"/>
      <point x="379" y="69" type="line"/>
      <point x="193" y="101" type="line"/>
      <point x="241" y="68" type="line"/>
      <point x="241" y="539" type="line"/>
      <point x="74" y="539" type="line"/>
      <point x="74" y="439" type="line"/>
      <point x="186" y="439" type="line"/>
      <point x="153" y="468" type="line"/>
      <point x="153" y="75" type="line"/>
      <point x="183" y="96" type="line"/>
      <point x="74" y="68" type="line"/>
      <point x="74" y="-1" type="line"/>
    </contour>
    <contour>
      <point x="481" y="332" type="line"/>
      <point x="506" y="500"/>
      <point x="479" y="555"/>
      <point x="386" y="555" type="curve" smooth="yes"/>
      <point x="313" y="555"/>
      <point x="266" y="520"/>
      <point x="264" y="439" type="curve"/>
      <point x="296" y="465" type="line"/>
      <point x="223" y="465" type="line"/>
      <point x="217" y="388" type="line"/>
      <point x="247" y="424"/>
      <point x="294" y="441"/>
      <point x="335" y="441" type="curve" smooth="yes"/>
      <point x="399" y="441"/>
      <point x="405" y="389"/>
      <point x="411" y="331" type="curve"/>
    </contour>
  </outline>
</glyph>
<glyph name="u" format="1">
  <advance width="646"/>
  <unicode hex="0075"/>
  <outline>
    <contour>
      <point x="9" y="472" type="line"/>
      <point x="131" y="417" type="line"/>
      <point x="73" y="475" type="line"/>
      <point x="73" y="171" type="line"/>
      <point x="73" y="31"/>
      <point x="127" y="-15"/>
      <point x="238" y="-15" type="curve" smooth="yes"/>
      <point x="335" y="-15"/>
      <point x="390" y="22"/>
      <point x="396" y="113" type="curve"/>
      <point x="361" y="77" type="line"/>
      <point x="435" y="63" type="line"/>
      <point x="437" y="167" type="line"/>
      <point x="410" y="114"/>
      <point x="335" y="96"/>
      <point x="279" y="96" type="curve" smooth="yes"/>
      <point x="201" y="96"/>
      <point x="165" y="119"/>
      <point x="165" y="156" type="curve" smooth="yes"/>
      <point x="165" y="541" type="line"/>
      <point x="9" y="541" type="line"/>
    </contour>
    <contour>
      <point x="350" y="541" type="line"/>
      <point x="350" y="472" type="line"/>
      <point x="445" y="428" type="line"/>
      <point x="417" y="472" type="line"/>
      <point x="417" y="1" type="line"/>
      <point x="569" y="1" type="line"/>
      <point x="569" y="68" type="line"/>
      <point x="457" y="111" type="line"/>
      <point x="509" y="72" type="line"/>
      <point x="509" y="541" type="line"/>
    </contour>
  </outline>
</glyph>
<glyph name="Ntilde" format="1">
  <advance width="784"/>
  <unicode hex="00D1"/>
  <outline>
    <contour>
      <point x="257" y="832" type="curve"/>
      <point x="215" y="842" type="line"/>
      <point x="215" y="942"/>
      <point x="223" y="1016"/>
      <point x="337" y="1016" type="curve" smooth="yes"/>
      <point x="396" y="1016"/>
      <point x="425" y="1008"/>
      <point x="452" y="969" type="curve"/>
      <point x="468" y="945"/>
      <point x="476" y="940"/>
      <point x="504" y="940" type="curve" smooth="yes"/>
      <point x="548" y="930"/>
      <point x="562" y="951"/>
      <point x="578" y="973" type="curve"/>
      <point x="598" y="973"/>
      <point x="614" y="983"/>
      <point x="614" y="1013" type="curve"/>
      <point x="656" y="1009" type="line"/>
      <point x="656" y="907"/>
      <point x="647" y="825"/>
      <point x="533" y="825" type="curve" smooth="yes"/>
      <point x="474" y="825"/>
      <point x="448" y="837"/>
      <point x="419" y="878" type="curve"/>
      <point x="403" y="901"/>
      <point x="395" y="907"/>
      <point x="366" y="907" type="curve" smooth="yes"/>
      <point x="324" y="916"/>
      <point x="309" y="893"/>
      <point x="293" y="870" type="curve"/>
      <point x="272" y="870"/>
      <point x="257" y="861"/>
    </contour>
    <component base="N" xOffset="9"/>
  </outline>
</glyph>
<glyph name="ntilde" format="1">
  <advance width="656"/>
  <unicode hex="00F1"/>
  <outline>
    <contour>
      <point x="442" y="630" type="curve" smooth="yes"/>
      <point x="393" y="630"/>
      <point x="375" y="641"/>
      <point x="353" y="672" type="curve"/>
      <point x="344" y="685"/>
      <point x="337" y="692"/>
      <point x="319" y="692" type="curve" smooth="yes"/>
      <point x="289" y="701"/>
      <point x="276" y="687"/>
      <point x="261" y="672" type="curve"/>
      <point x="241" y="672"/>
      <point x="229" y="664"/>
      <point x="229" y="636" type="curve"/>
      <point x="189" y="642" type="line"/>
      <point x="189" y="728"/>
      <point x="198" y="785"/>
      <point x="289" y="785" type="curve" smooth="yes"/>
      <point x="337" y="785"/>
      <point x="359" y="777"/>
      <point x="379" y="747" type="curve"/>
      <point x="389" y="733"/>
      <point x="395" y="727"/>
      <point x="412" y="727" type="curve" smooth="yes"/>
      <point x="443" y="717"/>
      <point x="456" y="729"/>
      <point x="471" y="744" type="curve"/>
      <point x="491" y="744"/>
      <point x="502" y="754"/>
      <point x="502" y="783" type="curve"/>
      <point x="543" y="780" type="line"/>
      <point x="543" y="692"/>
      <point x="533" y="630"/>
    </contour>
    <component base="n" xOffset="30"/>
  </outline>
</glyph>
<glyph name="r.alt" format="1">
  <advance width="552"/>
  <outline>
    <contour>
      <point x="373" y="51" type="line"/>
      <point x="223" y="92" type="line"/>
      <point x="223" y="540" type="line"/>
      <point x="75" y="540" type="line"/>
      <point x="75" y="439" type="line"/>
      <point x="135" y="439" type="line"/>
      <point x="135" y="76" type="line"/>
      <point x="75" y="76" type="line"/>
      <point x="75" y="0" type="line"/>
      <point x="373" y="0" type="line"/>
    </contour>
    <contour>
      <point x="223" y="441" type="line"/>
      <point x="223" y="305" type="line"/>
      <point x="223" y="378"/>
      <point x="265" y="433"/>
      <point x="338" y="433" type="curve"/>
      <point x="401" y="433"/>
      <point x="468" y="394"/>
      <point x="468" y="394" type="curve"/>
      <point x="525" y="485" type="line"/>
      <point x="525" y="485"/>
      <point x="454" y="558"/>
      <point x="354" y="558" type="curve" smooth="yes"/>
      <point x="253" y="558"/>
      <point x="246" y="441"/>
      <point x="246" y="441" type="curve"/>
    </contour>
  </outline>
</glyph>
